<svg width="97" height="32" viewBox="0 0 97 32" fill="none" xmlns="http://www.w3.org/2000/svg">
<mask id="path-1-inside-1_39_127" fill="white">
<path d="M41.0263 32C40.5256 32 40.1396 31.8655 39.8684 31.5964C39.5972 31.3274 39.4616 30.9341 39.4616 30.4167V12.4104C39.4616 11.893 39.5972 11.4997 39.8684 11.2307C40.1396 10.9616 40.5152 10.8271 40.995 10.8271C41.4958 10.8271 41.8818 10.9616 42.153 11.2307C42.4242 11.4997 42.5598 11.893 42.5598 12.4104V15.1113L42.2156 14.4594C42.5494 13.3417 43.2066 12.4518 44.1872 11.7895C45.1678 11.1065 46.3257 10.765 47.661 10.765C49.0171 10.765 50.1959 11.0858 51.1973 11.7274C52.2196 12.369 53.002 13.2693 53.5445 14.4283C54.1078 15.5874 54.3895 16.9844 54.3895 18.6195C54.3895 20.2131 54.1078 21.6102 53.5445 22.8106C53.002 23.9903 52.2301 24.901 51.2286 25.5426C50.2272 26.1635 49.0379 26.4739 47.661 26.4739C46.3465 26.4739 45.1991 26.1428 44.2185 25.4805C43.2379 24.8182 42.5807 23.9386 42.2469 22.8416H42.6224V30.4167C42.6224 30.9341 42.4764 31.3274 42.1843 31.5964C41.913 31.8655 41.5271 32 41.0263 32ZM46.8786 24.0524C47.7548 24.0524 48.5164 23.8454 49.1631 23.4315C49.8099 23.0175 50.3106 22.407 50.6653 21.5998C51.02 20.7926 51.1973 19.7992 51.1973 18.6195C51.1973 16.8395 50.8009 15.4942 50.0081 14.5836C49.2362 13.6729 48.193 13.2176 46.8786 13.2176C46.0232 13.2176 45.2616 13.4245 44.594 13.8385C43.9472 14.2317 43.4465 14.8319 43.0918 15.6391C42.7372 16.4463 42.5598 17.4397 42.5598 18.6195C42.5598 20.3787 42.9562 21.724 43.749 22.6553C44.5419 23.5867 45.585 24.0524 46.8786 24.0524Z"/>
<path d="M64.5861 26.4739C63.0422 26.4739 61.7069 26.1531 60.5803 25.5115C59.4745 24.8699 58.6087 23.9593 57.9828 22.7795C57.3569 21.5998 57.0439 20.2131 57.0439 18.6195C57.0439 17.3983 57.2213 16.3117 57.576 15.3597C57.9306 14.4076 58.4314 13.5901 59.0781 12.9071C59.7458 12.2034 60.5386 11.6756 61.4566 11.3238C62.3954 10.9512 63.4386 10.765 64.5861 10.765C66.1091 10.765 67.4235 11.0858 68.5293 11.7274C69.6559 12.369 70.5322 13.2796 71.1581 14.4594C71.784 15.6184 72.097 17.0051 72.097 18.6195C72.097 19.8199 71.9196 20.9065 71.565 21.8792C71.2103 22.852 70.6991 23.6798 70.0315 24.3628C69.3847 25.0458 68.5919 25.5736 67.653 25.9462C66.735 26.298 65.7127 26.4739 64.5861 26.4739ZM64.5861 24.0524C65.4415 24.0524 66.1926 23.8454 66.8394 23.4315C67.4861 23.0175 67.9869 22.407 68.3415 21.5998C68.7171 20.7926 68.9049 19.7992 68.9049 18.6195C68.9049 16.8395 68.5085 15.4942 67.7156 14.5836C66.9228 13.6729 65.8796 13.2176 64.5861 13.2176C63.7098 13.2176 62.9483 13.4245 62.3015 13.8385C61.6548 14.2317 61.1436 14.8319 60.7681 15.6391C60.4134 16.4463 60.2361 17.4397 60.2361 18.6195C60.2361 20.3787 60.6325 21.724 61.4253 22.6553C62.2181 23.5867 63.2717 24.0524 64.5861 24.0524Z"/>
<path d="M77.2116 32C76.7108 32 76.3249 31.8655 76.0536 31.5964C75.7824 31.3274 75.6468 30.9341 75.6468 30.4167V12.4104C75.6468 11.893 75.7824 11.4997 76.0536 11.2307C76.3249 10.9616 76.7004 10.8271 77.1803 10.8271C77.681 10.8271 78.067 10.9616 78.3382 11.2307C78.6094 11.4997 78.745 11.893 78.745 12.4104V15.1113L78.4008 14.4594C78.7346 13.3417 79.3918 12.4518 80.3724 11.7895C81.353 11.1065 82.5109 10.765 83.8462 10.765C85.2023 10.765 86.3811 11.0858 87.3826 11.7274C88.4049 12.369 89.1872 13.2693 89.7297 14.4283C90.293 15.5874 90.5747 16.9844 90.5747 18.6195C90.5747 20.2131 90.293 21.6102 89.7297 22.8106C89.1872 23.9903 88.4153 24.901 87.4138 25.5426C86.4124 26.1635 85.2232 26.4739 83.8462 26.4739C82.5318 26.4739 81.3843 26.1428 80.4037 25.4805C79.4231 24.8182 78.7659 23.9386 78.4321 22.8416H78.8076V30.4167C78.8076 30.9341 78.6616 31.3274 78.3695 31.5964C78.0983 31.8655 77.7123 32 77.2116 32ZM83.0638 24.0524C83.9401 24.0524 84.7016 23.8454 85.3484 23.4315C85.9951 23.0175 86.4958 22.407 86.8505 21.5998C87.2052 20.7926 87.3826 19.7992 87.3826 18.6195C87.3826 16.8395 86.9861 15.4942 86.1933 14.5836C85.4214 13.6729 84.3782 13.2176 83.0638 13.2176C82.2084 13.2176 81.4469 13.4245 80.7792 13.8385C80.1325 14.2317 79.6317 14.8319 79.2771 15.6391C78.9224 16.4463 78.745 17.4397 78.745 18.6195C78.745 20.3787 79.1414 21.724 79.9343 22.6553C80.7271 23.5867 81.7703 24.0524 83.0638 24.0524Z"/>
<path d="M95.0284 26.3187C94.4233 26.3187 93.9331 26.1324 93.5575 25.7599C93.182 25.3873 92.9942 24.9113 92.9942 24.3318C92.9942 23.7523 93.182 23.2866 93.5575 22.9348C93.9331 22.5622 94.4233 22.3759 95.0284 22.3759C95.6334 22.3759 96.1133 22.5622 96.468 22.9348C96.8227 23.2866 97 23.7523 97 24.3318C97 24.9113 96.8227 25.3873 96.468 25.7599C96.1133 26.1324 95.6334 26.3187 95.0284 26.3187Z"/>
<path d="M31.2953 15.5227C31.2953 24.0956 24.2896 31.0454 15.6477 31.0454C7.0057 31.0454 0 24.0956 0 15.5227C0 6.94975 7.0057 0 15.6477 0C24.2896 0 31.2953 6.94975 31.2953 15.5227Z"/>
</mask>
<path d="M41.0263 32C40.5256 32 40.1396 31.8655 39.8684 31.5964C39.5972 31.3274 39.4616 30.9341 39.4616 30.4167V12.4104C39.4616 11.893 39.5972 11.4997 39.8684 11.2307C40.1396 10.9616 40.5152 10.8271 40.995 10.8271C41.4958 10.8271 41.8818 10.9616 42.153 11.2307C42.4242 11.4997 42.5598 11.893 42.5598 12.4104V15.1113L42.2156 14.4594C42.5494 13.3417 43.2066 12.4518 44.1872 11.7895C45.1678 11.1065 46.3257 10.765 47.661 10.765C49.0171 10.765 50.1959 11.0858 51.1973 11.7274C52.2196 12.369 53.002 13.2693 53.5445 14.4283C54.1078 15.5874 54.3895 16.9844 54.3895 18.6195C54.3895 20.2131 54.1078 21.6102 53.5445 22.8106C53.002 23.9903 52.2301 24.901 51.2286 25.5426C50.2272 26.1635 49.0379 26.4739 47.661 26.4739C46.3465 26.4739 45.1991 26.1428 44.2185 25.4805C43.2379 24.8182 42.5807 23.9386 42.2469 22.8416H42.6224V30.4167C42.6224 30.9341 42.4764 31.3274 42.1843 31.5964C41.913 31.8655 41.5271 32 41.0263 32ZM46.8786 24.0524C47.7548 24.0524 48.5164 23.8454 49.1631 23.4315C49.8099 23.0175 50.3106 22.407 50.6653 21.5998C51.02 20.7926 51.1973 19.7992 51.1973 18.6195C51.1973 16.8395 50.8009 15.4942 50.0081 14.5836C49.2362 13.6729 48.193 13.2176 46.8786 13.2176C46.0232 13.2176 45.2616 13.4245 44.594 13.8385C43.9472 14.2317 43.4465 14.8319 43.0918 15.6391C42.7372 16.4463 42.5598 17.4397 42.5598 18.6195C42.5598 20.3787 42.9562 21.724 43.749 22.6553C44.5419 23.5867 45.585 24.0524 46.8786 24.0524Z" fill="#282A2C"/>
<path d="M64.5861 26.4739C63.0422 26.4739 61.7069 26.1531 60.5803 25.5115C59.4745 24.8699 58.6087 23.9593 57.9828 22.7795C57.3569 21.5998 57.0439 20.2131 57.0439 18.6195C57.0439 17.3983 57.2213 16.3117 57.576 15.3597C57.9306 14.4076 58.4314 13.5901 59.0781 12.9071C59.7458 12.2034 60.5386 11.6756 61.4566 11.3238C62.3954 10.9512 63.4386 10.765 64.5861 10.765C66.1091 10.765 67.4235 11.0858 68.5293 11.7274C69.6559 12.369 70.5322 13.2796 71.1581 14.4594C71.784 15.6184 72.097 17.0051 72.097 18.6195C72.097 19.8199 71.9196 20.9065 71.565 21.8792C71.2103 22.852 70.6991 23.6798 70.0315 24.3628C69.3847 25.0458 68.5919 25.5736 67.653 25.9462C66.735 26.298 65.7127 26.4739 64.5861 26.4739ZM64.5861 24.0524C65.4415 24.0524 66.1926 23.8454 66.8394 23.4315C67.4861 23.0175 67.9869 22.407 68.3415 21.5998C68.7171 20.7926 68.9049 19.7992 68.9049 18.6195C68.9049 16.8395 68.5085 15.4942 67.7156 14.5836C66.9228 13.6729 65.8796 13.2176 64.5861 13.2176C63.7098 13.2176 62.9483 13.4245 62.3015 13.8385C61.6548 14.2317 61.1436 14.8319 60.7681 15.6391C60.4134 16.4463 60.2361 17.4397 60.2361 18.6195C60.2361 20.3787 60.6325 21.724 61.4253 22.6553C62.2181 23.5867 63.2717 24.0524 64.5861 24.0524Z" fill="#282A2C"/>
<path d="M77.2116 32C76.7108 32 76.3249 31.8655 76.0536 31.5964C75.7824 31.3274 75.6468 30.9341 75.6468 30.4167V12.4104C75.6468 11.893 75.7824 11.4997 76.0536 11.2307C76.3249 10.9616 76.7004 10.8271 77.1803 10.8271C77.681 10.8271 78.067 10.9616 78.3382 11.2307C78.6094 11.4997 78.745 11.893 78.745 12.4104V15.1113L78.4008 14.4594C78.7346 13.3417 79.3918 12.4518 80.3724 11.7895C81.353 11.1065 82.5109 10.765 83.8462 10.765C85.2023 10.765 86.3811 11.0858 87.3826 11.7274C88.4049 12.369 89.1872 13.2693 89.7297 14.4283C90.293 15.5874 90.5747 16.9844 90.5747 18.6195C90.5747 20.2131 90.293 21.6102 89.7297 22.8106C89.1872 23.9903 88.4153 24.901 87.4138 25.5426C86.4124 26.1635 85.2232 26.4739 83.8462 26.4739C82.5318 26.4739 81.3843 26.1428 80.4037 25.4805C79.4231 24.8182 78.7659 23.9386 78.4321 22.8416H78.8076V30.4167C78.8076 30.9341 78.6616 31.3274 78.3695 31.5964C78.0983 31.8655 77.7123 32 77.2116 32ZM83.0638 24.0524C83.9401 24.0524 84.7016 23.8454 85.3484 23.4315C85.9951 23.0175 86.4958 22.407 86.8505 21.5998C87.2052 20.7926 87.3826 19.7992 87.3826 18.6195C87.3826 16.8395 86.9861 15.4942 86.1933 14.5836C85.4214 13.6729 84.3782 13.2176 83.0638 13.2176C82.2084 13.2176 81.4469 13.4245 80.7792 13.8385C80.1325 14.2317 79.6317 14.8319 79.2771 15.6391C78.9224 16.4463 78.745 17.4397 78.745 18.6195C78.745 20.3787 79.1414 21.724 79.9343 22.6553C80.7271 23.5867 81.7703 24.0524 83.0638 24.0524Z" fill="#282A2C"/>
<path d="M95.0284 26.3187C94.4233 26.3187 93.9331 26.1324 93.5575 25.7599C93.182 25.3873 92.9942 24.9113 92.9942 24.3318C92.9942 23.7523 93.182 23.2866 93.5575 22.9348C93.9331 22.5622 94.4233 22.3759 95.0284 22.3759C95.6334 22.3759 96.1133 22.5622 96.468 22.9348C96.8227 23.2866 97 23.7523 97 24.3318C97 24.9113 96.8227 25.3873 96.468 25.7599C96.1133 26.1324 95.6334 26.3187 95.0284 26.3187Z" fill="#282A2C"/>
<path d="M31.2953 15.5227C31.2953 24.0956 24.2896 31.0454 15.6477 31.0454C7.0057 31.0454 0 24.0956 0 15.5227C0 6.94975 7.0057 0 15.6477 0C24.2896 0 31.2953 6.94975 31.2953 15.5227Z" fill="#282A2C"/>
<path d="M28.7074 10.4901C19.5286 10.3677 13.9586 14.3333 10.7221 18.3941C9.12171 20.4021 8.10592 22.4123 7.48902 23.9204C7.17986 24.6761 6.96872 25.3111 6.8333 25.764C6.76554 25.9907 6.71659 26.1723 6.68369 26.3013C6.66723 26.3659 6.65478 26.4173 6.64599 26.4547C6.6416 26.4734 6.63812 26.4885 6.63551 26.5001C6.6342 26.5059 6.63312 26.5108 6.63224 26.5147C6.6318 26.5167 6.63142 26.5184 6.63109 26.5199C6.63092 26.5207 6.63071 26.5217 6.63063 26.522C6.63043 26.523 6.63025 26.5238 8.09626 26.8413C9.56227 27.1588 9.56211 27.1595 9.56197 27.1602C9.56194 27.1604 9.5618 27.161 9.56174 27.1613C9.5616 27.1619 9.56152 27.1623 9.56149 27.1624C9.56142 27.1627 9.56155 27.1621 9.56188 27.1606C9.56255 27.1577 9.56402 27.1513 9.56633 27.1414C9.57096 27.1217 9.57896 27.0885 9.59066 27.0426C9.61407 26.9508 9.65221 26.8086 9.70761 26.6233C9.8185 26.2524 9.99791 25.7108 10.2657 25.0562C10.8026 23.7436 11.6863 21.9977 13.0681 20.2639C15.796 16.8413 20.5216 13.3812 28.6674 13.4898L28.7074 10.4901ZM2.58795 13.218C8.69929 13.2995 12.5824 10.7001 14.9079 8.03279C16.0557 6.71638 16.8134 5.39836 17.2858 4.40754C17.5226 3.91069 17.6899 3.49168 17.7999 3.18994C17.855 3.03892 17.8958 2.91682 17.9241 2.82852C17.9382 2.78435 17.9492 2.74859 17.9572 2.72184C17.9612 2.70846 17.9645 2.69733 17.967 2.68853C17.9683 2.68412 17.9694 2.6803 17.9703 2.67707C17.9708 2.67545 17.9712 2.67398 17.9716 2.67266C17.9718 2.672 17.972 2.67112 17.9721 2.67079C17.9724 2.66995 17.9726 2.66915 16.5284 2.26372C15.0842 1.8583 15.0844 1.85757 15.0846 1.85688C15.0847 1.85669 15.0849 1.85603 15.085 1.85566C15.0852 1.85493 15.0854 1.85433 15.0855 1.85388C15.0858 1.85297 15.0859 1.85263 15.0858 1.85284C15.0857 1.85327 15.0849 1.85591 15.0835 1.8607C15.0806 1.87029 15.0751 1.88844 15.0667 1.91457C15.05 1.96688 15.022 2.05097 14.9814 2.16227C14.9001 2.38517 14.769 2.7153 14.5778 3.1165C14.1939 3.92176 13.576 4.99539 12.6467 6.06128C10.8181 8.1586 7.74094 10.2864 2.62794 10.2183L2.58795 13.218ZM28.7074 17.4784C22.5723 17.3966 18.7297 20.1052 16.4584 22.8721C15.3383 24.2367 14.6092 25.6013 14.159 26.6248C13.9331 27.1383 13.7752 27.5709 13.6721 27.882C13.6204 28.0376 13.5823 28.1633 13.5561 28.254C13.5431 28.2994 13.5329 28.336 13.5256 28.3633C13.5219 28.377 13.5189 28.3883 13.5166 28.3972C13.5155 28.4017 13.5145 28.4056 13.5136 28.4088C13.5132 28.4104 13.5128 28.4119 13.5125 28.4132C13.5123 28.4139 13.5121 28.4147 13.512 28.4151C13.5118 28.4159 13.5116 28.4167 14.9666 28.7816C16.4215 29.1466 16.4213 29.1473 16.4211 29.148C16.4211 29.1482 16.4209 29.1488 16.4208 29.1492C16.4207 29.1499 16.4205 29.1504 16.4204 29.1509C16.4202 29.1517 16.4201 29.1519 16.4202 29.1516C16.4204 29.151 16.4212 29.148 16.4226 29.1428C16.4253 29.1325 16.4306 29.1133 16.4385 29.0858C16.4544 29.0307 16.4809 28.9427 16.5195 28.8266C16.5967 28.5939 16.7215 28.2501 16.9051 27.8328C17.2737 26.9948 17.8702 25.8805 18.7773 24.7756C20.5603 22.6034 23.5781 20.4103 28.6674 20.4781L28.7074 17.4784ZM39.8684 31.5964L41.9812 29.4666V29.4666L39.8684 31.5964ZM39.8684 11.2307L41.9812 13.3605L39.8684 11.2307ZM42.5598 15.1113L39.9069 16.5121L45.5598 15.1113H42.5598ZM42.2156 14.4594L39.341 13.6008L38.9901 14.7758L39.5627 15.8602L42.2156 14.4594ZM44.1872 11.7895L45.8663 14.2755L45.8841 14.2635L45.9018 14.2512L44.1872 11.7895ZM51.1973 11.7274L49.579 14.2534L49.5907 14.261L49.6026 14.2684L51.1973 11.7274ZM53.5445 14.4283L50.8273 15.7L50.8367 15.7199L50.8463 15.7397L53.5445 14.4283ZM53.5445 22.8106L50.8286 21.5361L50.8237 21.5467L50.8188 21.5573L53.5445 22.8106ZM51.2286 25.5426L52.8095 28.0923L52.8283 28.0806L52.847 28.0686L51.2286 25.5426ZM44.2185 25.4805L42.5393 27.9665L44.2185 25.4805ZM42.2469 22.8416V19.8416H38.1981L39.3768 23.715L42.2469 22.8416ZM42.6224 22.8416H45.6224V19.8416H42.6224V22.8416ZM42.1843 31.5964L40.1517 29.3899L40.1109 29.4275L40.0715 29.4666L42.1843 31.5964ZM49.1631 23.4315L47.546 20.9047V20.9047L49.1631 23.4315ZM50.6653 21.5998L53.4118 22.8067L50.6653 21.5998ZM50.0081 14.5836L47.7197 16.5234L47.7325 16.5385L47.7454 16.5534L50.0081 14.5836ZM44.594 13.8385L46.1526 16.4018L46.1637 16.3951L46.1748 16.3882L44.594 13.8385ZM43.0918 15.6391L45.8384 16.8459L43.0918 15.6391ZM60.5803 25.5115L59.0747 28.1063L59.0852 28.1124L59.0957 28.1184L60.5803 25.5115ZM59.0781 12.9071L56.9018 10.8423L56.8998 10.8443L59.0781 12.9071ZM61.4566 11.3238L62.5302 14.1251L62.5467 14.1188L62.5631 14.1123L61.4566 11.3238ZM68.5293 11.7274L67.0237 14.3222L67.0342 14.3283L67.0447 14.3343L68.5293 11.7274ZM71.1581 14.4594L68.508 15.8654L68.5132 15.8752L68.5184 15.8849L71.1581 14.4594ZM71.565 21.8792L74.3835 22.9069V22.9069L71.565 21.8792ZM70.0315 24.3628L67.8862 22.2658L67.8696 22.2828L67.8532 22.3001L70.0315 24.3628ZM67.653 25.9462L68.7267 28.7474L68.7432 28.7411L68.7595 28.7346L67.653 25.9462ZM66.8394 23.4315L68.4565 25.9583L68.4566 25.9583L66.8394 23.4315ZM68.3415 21.5998L65.6215 20.3343L65.6079 20.3635L65.595 20.393L68.3415 21.5998ZM67.7156 14.5836L65.453 16.5534L67.7156 14.5836ZM62.3015 13.8385L63.8601 16.4018L63.8896 16.3839L63.9187 16.3653L62.3015 13.8385ZM60.7681 15.6391L58.0481 14.3736L58.0345 14.4028L58.0215 14.4322L60.7681 15.6391ZM76.0536 31.5964L78.1664 29.4666L78.1664 29.4666L76.0536 31.5964ZM76.0536 11.2307L78.1664 13.3605L76.0536 11.2307ZM78.745 15.1113L76.0922 16.5121L81.745 15.1113H78.745ZM78.4008 14.4594L75.5263 13.6008L75.1753 14.7758L75.7479 15.8602L78.4008 14.4594ZM80.3724 11.7895L82.0515 14.2755L82.0694 14.2635L82.087 14.2512L80.3724 11.7895ZM87.3826 11.7274L85.7642 14.2534L85.776 14.261L85.7878 14.2684L87.3826 11.7274ZM89.7297 14.4283L87.0126 15.7L87.0219 15.7199L87.0315 15.7397L89.7297 14.4283ZM89.7297 22.8106L87.0139 21.5361L87.0089 21.5467L87.004 21.5573L89.7297 22.8106ZM87.4138 25.5426L88.9947 28.0923L89.0135 28.0806L89.0322 28.0686L87.4138 25.5426ZM80.4037 25.4805L78.7246 27.9665L80.4037 25.4805ZM78.4321 22.8416V19.8416H74.3833L75.562 23.715L78.4321 22.8416ZM78.8076 22.8416H81.8076V19.8416H78.8076V22.8416ZM78.3695 31.5964L76.337 29.3899L76.2961 29.4275L76.2567 29.4666L78.3695 31.5964ZM85.3484 23.4315L83.7312 20.9047V20.9047L85.3484 23.4315ZM86.8505 21.5998L89.5971 22.8067L86.8505 21.5998ZM86.1933 14.5836L83.9049 16.5234L83.9177 16.5385L83.9307 16.5534L86.1933 14.5836ZM80.7792 13.8385L82.3378 16.4018L82.349 16.3951L82.3601 16.3882L80.7792 13.8385ZM79.2771 15.6391L82.0236 16.8459L79.2771 15.6391ZM93.5575 25.7599L95.6703 23.6301V23.6301L93.5575 25.7599ZM93.5575 22.9348L95.6086 25.124L95.6399 25.0947L95.6703 25.0646L93.5575 22.9348ZM96.468 22.9348L94.2952 25.0033L94.3248 25.0344L94.3552 25.0646L96.468 22.9348ZM96.468 25.7599L98.6407 27.8285L96.468 25.7599ZM41.0263 29C41.0392 29 41.162 29.0012 41.3487 29.0662C41.5485 29.1359 41.7769 29.264 41.9812 29.4666L37.7556 33.7262C38.7471 34.7098 39.9894 35 41.0263 35V29ZM41.9812 29.4666C42.1999 29.6836 42.331 29.9233 42.3994 30.1216C42.4316 30.215 42.4469 30.2901 42.4543 30.3396C42.4616 30.3887 42.4616 30.416 42.4616 30.4167H36.4616C36.4616 31.4424 36.7385 32.7173 37.7556 33.7262L41.9812 29.4666ZM42.4616 30.4167V12.4104H36.4616V30.4167H42.4616ZM42.4616 12.4104C42.4616 12.4111 42.4616 12.4384 42.4543 12.4875C42.4469 12.537 42.4316 12.6121 42.3994 12.7054C42.331 12.9038 42.1999 13.1435 41.9812 13.3605L37.7556 9.10085C36.7385 10.1098 36.4616 11.3847 36.4616 12.4104H42.4616ZM41.9812 13.3605C41.7912 13.5489 41.5722 13.6781 41.3652 13.7522C41.17 13.8221 41.032 13.8271 40.995 13.8271V7.82707C39.9372 7.82707 38.724 8.14019 37.7556 9.10085L41.9812 13.3605ZM40.995 13.8271C40.9822 13.8271 40.8594 13.8259 40.6727 13.7608C40.4729 13.6912 40.2444 13.5631 40.0402 13.3605L44.2658 9.10085C43.2743 8.11724 42.032 7.82707 40.995 7.82707V13.8271ZM40.0402 13.3605C39.8215 13.1435 39.6904 12.9038 39.622 12.7054C39.5898 12.6121 39.5745 12.537 39.5671 12.4875C39.5598 12.4384 39.5598 12.4111 39.5598 12.4104H45.5598C45.5598 11.3847 45.2828 10.1098 44.2658 9.10085L40.0402 13.3605ZM39.5598 12.4104V15.1113H45.5598V12.4104H39.5598ZM45.2127 13.7105L44.8685 13.0586L39.5627 15.8602L39.9069 16.5121L45.2127 13.7105ZM45.0901 15.3179C45.2224 14.8751 45.4512 14.5559 45.8663 14.2755L42.508 9.3034C40.962 10.3476 39.8764 11.8084 39.341 13.6008L45.0901 15.3179ZM45.9018 14.2512C46.3211 13.9592 46.8638 13.765 47.661 13.765V7.76498C45.7875 7.76498 44.0144 8.2538 42.4725 9.32776L45.9018 14.2512ZM47.661 13.765C48.526 13.765 49.1257 13.963 49.579 14.2534L52.8157 9.20134C51.2661 8.20854 49.5082 7.76498 47.661 7.76498V13.765ZM49.6026 14.2684C50.1066 14.5847 50.5138 15.0302 50.8273 15.7L56.2616 13.1566C55.4902 11.5084 54.3327 10.1532 52.7921 9.18636L49.6026 14.2684ZM50.8463 15.7397C51.165 16.3955 51.3895 17.3202 51.3895 18.6195H57.3895C57.3895 16.6485 57.0506 14.7793 56.2427 13.1169L50.8463 15.7397ZM51.3895 18.6195C51.3895 19.8602 51.1709 20.8068 50.8286 21.5361L56.2603 24.085C57.0447 22.4135 57.3895 20.5661 57.3895 18.6195H51.3895ZM50.8188 21.5573C50.4933 22.2653 50.0844 22.7128 49.6103 23.0165L52.847 28.0686C54.3758 27.0891 55.5108 25.7153 56.2701 24.0639L50.8188 21.5573ZM49.6478 22.9929C49.1963 23.2728 48.575 23.4739 47.661 23.4739V29.4739C49.5009 29.4739 51.258 29.0542 52.8095 28.0923L49.6478 22.9929ZM47.661 23.4739C46.876 23.4739 46.328 23.2851 45.8976 22.9944L42.5393 27.9665C44.0701 29.0004 45.8171 29.4739 47.661 29.4739V23.4739ZM45.8976 22.9944C45.4674 22.7038 45.2436 22.3844 45.1169 21.9682L39.3768 23.715C39.9178 25.4927 41.0084 26.9325 42.5393 27.9665L45.8976 22.9944ZM42.2469 25.8416H42.6224V19.8416H42.2469V25.8416ZM39.6224 22.8416V30.4167H45.6224V22.8416H39.6224ZM39.6224 30.4167C39.6224 30.3992 39.6243 30.2607 39.7006 30.0552C39.7827 29.8341 39.9303 29.5939 40.1517 29.3899L44.2168 33.8029C45.2984 32.8067 45.6224 31.5045 45.6224 30.4167H39.6224ZM40.0715 29.4666C40.2757 29.264 40.5042 29.1359 40.704 29.0662C40.8907 29.0012 41.0135 29 41.0263 29V35C42.0633 35 43.3055 34.7098 44.2971 33.7262L40.0715 29.4666ZM46.8786 27.0524C48.245 27.0524 49.5853 26.7231 50.7803 25.9583L47.546 20.9047C47.4474 20.9677 47.2647 21.0524 46.8786 21.0524V27.0524ZM50.7803 25.9583C51.9964 25.18 52.8554 24.073 53.4118 22.8067L47.9188 20.393C47.7658 20.741 47.6234 20.8551 47.546 20.9047L50.7803 25.9583ZM53.4118 22.8067C53.98 21.5137 54.1973 20.0816 54.1973 18.6195H48.1973C48.1973 19.5167 48.06 20.0715 47.9188 20.393L53.4118 22.8067ZM54.1973 18.6195C54.1973 16.4503 53.7205 14.2789 52.2708 12.6137L47.7454 16.5534C47.8813 16.7095 48.1973 17.2288 48.1973 18.6195H54.1973ZM52.2965 12.6437C50.8926 10.9875 48.974 10.2176 46.8786 10.2176V16.2176C47.412 16.2176 47.5797 16.3583 47.7197 16.5234L52.2965 12.6437ZM46.8786 10.2176C45.5161 10.2176 44.1975 10.5545 43.0132 11.2888L46.1748 16.3882C46.3258 16.2946 46.5302 16.2176 46.8786 16.2176V10.2176ZM43.0355 11.2751C41.7803 12.0382 40.9055 13.1573 40.3453 14.4322L45.8384 16.8459C45.9875 16.5065 46.1142 16.4252 46.1526 16.4018L43.0355 11.2751ZM40.3453 14.4322C39.7772 15.7252 39.5598 17.1573 39.5598 18.6195H45.5598C45.5598 17.7222 45.6971 17.1674 45.8384 16.8459L40.3453 14.4322ZM39.5598 18.6195C39.5598 20.7847 40.0439 22.9309 41.4646 24.5999L46.0335 20.7108C45.8685 20.517 45.5598 19.9727 45.5598 18.6195H39.5598ZM41.4646 24.5999C42.8638 26.2437 44.7635 27.0524 46.8786 27.0524V21.0524C46.4066 21.0524 46.2199 20.9297 46.0335 20.7108L41.4646 24.5999ZM64.5861 23.4739C63.4632 23.4739 62.6599 23.2434 62.0649 22.9046L59.0957 28.1184C60.754 29.0628 62.6212 29.4739 64.5861 29.4739V23.4739ZM62.0859 22.9167C61.4875 22.5695 61.0082 22.081 60.6329 21.3735L55.3327 24.1856C56.2091 25.8375 57.4616 27.1704 59.0747 28.1063L62.0859 22.9167ZM60.6329 21.3735C60.2772 20.7032 60.0439 19.8173 60.0439 18.6195H54.0439C54.0439 20.609 54.4365 22.4965 55.3327 24.1856L60.6329 21.3735ZM60.0439 18.6195C60.0439 17.6857 60.1797 16.9639 60.3872 16.407L54.7647 14.3124C54.2628 15.6596 54.0439 17.111 54.0439 18.6195H60.0439ZM60.3872 16.407C60.6126 15.8019 60.9083 15.3375 61.2564 14.9699L56.8998 10.8443C55.9544 11.8427 55.2486 13.0133 54.7647 14.3124L60.3872 16.407ZM61.2545 14.9719C61.6098 14.5974 62.0243 14.319 62.5302 14.1251L60.3829 8.5225C59.0529 9.03228 57.8817 9.80942 56.9018 10.8423L61.2545 14.9719ZM62.5631 14.1123C63.1051 13.8972 63.7663 13.765 64.5861 13.765V7.76498C63.1109 7.76498 61.6857 8.00531 60.3501 8.5353L62.5631 14.1123ZM64.5861 13.765C65.6819 13.765 66.4558 13.9927 67.0237 14.3222L70.0349 9.13255C68.3913 8.17885 66.5364 7.76498 64.5861 7.76498V13.765ZM67.0447 14.3343C67.6614 14.6855 68.1404 15.1725 68.508 15.8654L73.8082 13.0533C72.924 11.3868 71.6505 10.0525 70.0139 9.12048L67.0447 14.3343ZM68.5184 15.8849C68.8602 16.5177 69.097 17.3918 69.097 18.6195H75.097C75.097 16.6184 74.7079 14.7191 73.7978 13.0339L68.5184 15.8849ZM69.097 18.6195C69.097 19.5242 68.9636 20.256 68.7465 20.8516L74.3835 22.9069C74.8757 21.5569 75.097 20.1155 75.097 18.6195H69.097ZM68.7465 20.8515C68.5253 21.4582 68.2317 21.9123 67.8862 22.2658L72.1768 26.4599C73.1666 25.4474 73.8953 24.2458 74.3835 22.9069L68.7465 20.8515ZM67.8532 22.3001C67.5284 22.6431 67.1101 22.9341 66.5466 23.1577L68.7595 28.7346C70.0737 28.2132 71.2411 27.4486 72.2098 26.4256L67.8532 22.3001ZM66.5794 23.1449C66.0503 23.3477 65.3987 23.4739 64.5861 23.4739V29.4739C66.0268 29.4739 67.4198 29.2484 68.7267 28.7474L66.5794 23.1449ZM64.5861 27.0524C65.9472 27.0524 67.2731 26.7157 68.4565 25.9583L65.2222 20.9047C65.1121 20.9751 64.9358 21.0524 64.5861 21.0524V27.0524ZM68.4566 25.9583C69.6726 25.18 70.5316 24.073 71.0881 22.8067L65.595 20.393C65.4421 20.741 65.2997 20.8551 65.2222 20.9047L68.4566 25.9583ZM71.0616 22.8653C71.6712 21.5549 71.9049 20.1008 71.9049 18.6195H65.9049C65.9049 19.4975 65.7629 20.0303 65.6215 20.3343L71.0616 22.8653ZM71.9049 18.6195C71.9049 16.4503 71.428 14.2789 69.9783 12.6137L65.453 16.5534C65.5889 16.7095 65.9049 17.2288 65.9049 18.6195H71.9049ZM69.9783 12.6137C68.5713 10.9975 66.6773 10.2176 64.5861 10.2176V16.2176C65.082 16.2176 65.2744 16.3483 65.453 16.5534L69.9783 12.6137ZM64.5861 10.2176C63.2197 10.2176 61.8794 10.5468 60.6844 11.3117L63.9187 16.3653C64.0172 16.3022 64.2 16.2176 64.5861 16.2176V10.2176ZM60.743 11.2751C59.5051 12.0277 58.6289 13.1252 58.0481 14.3736L63.4881 16.9046C63.6584 16.5386 63.8044 16.4357 63.8601 16.4018L60.743 11.2751ZM58.0215 14.4322C57.4534 15.7252 57.2361 17.1573 57.2361 18.6195H63.2361C63.2361 17.7222 63.3734 17.1674 63.5146 16.8459L58.0215 14.4322ZM57.2361 18.6195C57.2361 20.7847 57.7201 22.9309 59.1409 24.5999L63.7097 20.7108C63.5448 20.517 63.2361 19.9727 63.2361 18.6195H57.2361ZM59.1409 24.5999C60.5503 26.2557 62.4669 27.0524 64.5861 27.0524V21.0524C64.0765 21.0524 63.8859 20.9178 63.7097 20.7108L59.1409 24.5999ZM77.2116 29C77.2244 29 77.3472 29.0012 77.5339 29.0662C77.7337 29.1359 77.9622 29.264 78.1664 29.4666L73.9408 33.7262C74.9324 34.7098 76.1746 35 77.2116 35V29ZM78.1664 29.4666C78.3852 29.6836 78.5162 29.9233 78.5846 30.1216C78.6168 30.215 78.6321 30.2901 78.6395 30.3396C78.6468 30.3887 78.6468 30.416 78.6468 30.4167H72.6468C72.6468 31.4424 72.9238 32.7173 73.9408 33.7262L78.1664 29.4666ZM78.6468 30.4167V12.4104H72.6468V30.4167H78.6468ZM78.6468 12.4104C78.6468 12.4111 78.6468 12.4384 78.6395 12.4875C78.6321 12.537 78.6168 12.6121 78.5846 12.7054C78.5162 12.9038 78.3852 13.1435 78.1664 13.3605L73.9408 9.10085C72.9238 10.1098 72.6468 11.3847 72.6468 12.4104H78.6468ZM78.1664 13.3605C77.9765 13.5489 77.7574 13.6781 77.5505 13.7522C77.3552 13.8221 77.2172 13.8271 77.1803 13.8271V7.82707C76.1224 7.82707 74.9092 8.1402 73.9408 9.10085L78.1664 13.3605ZM77.1803 13.8271C77.1674 13.8271 77.0446 13.8259 76.8579 13.7608C76.6582 13.6912 76.4297 13.5631 76.2254 13.3605L80.451 9.10085C79.4595 8.11724 78.2172 7.82707 77.1803 7.82707V13.8271ZM76.2254 13.3605C76.0067 13.1435 75.8756 12.9038 75.8072 12.7054C75.7751 12.6121 75.7597 12.537 75.7523 12.4875C75.745 12.4384 75.745 12.4111 75.745 12.4104H81.745C81.745 11.3847 81.4681 10.1098 80.451 9.10085L76.2254 13.3605ZM75.745 12.4104V15.1113H81.745V12.4104H75.745ZM81.3979 13.7105L81.0537 13.0586L75.7479 15.8602L76.0922 16.5121L81.3979 13.7105ZM81.2753 15.3179C81.4076 14.8751 81.6364 14.5559 82.0515 14.2755L78.6933 9.3034C77.1472 10.3476 76.0616 11.8084 75.5263 13.6008L81.2753 15.3179ZM82.087 14.2512C82.5063 13.9592 83.0491 13.765 83.8462 13.765V7.76498C81.9728 7.76498 80.1997 8.2538 78.6578 9.32776L82.087 14.2512ZM83.8462 13.765C84.7112 13.765 85.3109 13.963 85.7642 14.2534L89.0009 9.20134C87.4513 8.20854 85.6934 7.76498 83.8462 7.76498V13.765ZM85.7878 14.2684C86.2918 14.5847 86.6991 15.0302 87.0126 15.7L92.4468 13.1566C91.6754 11.5084 90.5179 10.1532 88.9773 9.18636L85.7878 14.2684ZM87.0315 15.7397C87.3502 16.3955 87.5747 17.3202 87.5747 18.6195H93.5747C93.5747 16.6485 93.2358 14.7793 92.4279 13.1169L87.0315 15.7397ZM87.5747 18.6195C87.5747 19.8602 87.3561 20.8068 87.0139 21.5361L92.4455 24.085C93.2299 22.4135 93.5747 20.5661 93.5747 18.6195H87.5747ZM87.004 21.5573C86.6785 22.2653 86.2696 22.7128 85.7955 23.0165L89.0322 28.0686C90.561 27.0891 91.696 25.7153 92.4554 24.0639L87.004 21.5573ZM85.833 22.9929C85.3815 23.2728 84.7603 23.4739 83.8462 23.4739V29.4739C85.6861 29.4739 87.4433 29.0542 88.9947 28.0923L85.833 22.9929ZM83.8462 23.4739C83.0613 23.4739 82.5133 23.2851 82.0828 22.9944L78.7246 27.9665C80.2553 29.0004 82.0023 29.4739 83.8462 29.4739V23.4739ZM82.0828 22.9944C81.6526 22.7038 81.4288 22.3845 81.3021 21.9682L75.562 23.715C76.103 25.4927 77.1936 26.9325 78.7246 27.9665L82.0828 22.9944ZM78.4321 25.8416H78.8076V19.8416H78.4321V25.8416ZM75.8076 22.8416V30.4167H81.8076V22.8416H75.8076ZM75.8076 30.4167C75.8076 30.3992 75.8095 30.2607 75.8858 30.0552C75.9679 29.8341 76.1155 29.5939 76.337 29.3899L80.402 33.8029C81.4836 32.8067 81.8076 31.5045 81.8076 30.4167H75.8076ZM76.2567 29.4666C76.461 29.264 76.6895 29.1359 76.8892 29.0662C77.0759 29.0012 77.1987 29 77.2116 29V35C78.2485 35 79.4908 34.7098 80.4823 33.7262L76.2567 29.4666ZM83.0638 27.0524C84.4302 27.0524 85.7705 26.7231 86.9655 25.9583L83.7312 20.9047C83.6327 20.9677 83.4499 21.0524 83.0638 21.0524V27.0524ZM86.9655 25.9583C88.1816 25.18 89.0406 24.073 89.5971 22.8067L84.104 20.393C83.9511 20.741 83.8087 20.8551 83.7312 20.9047L86.9655 25.9583ZM89.5971 22.8067C90.1652 21.5137 90.3826 20.0817 90.3826 18.6195H84.3826C84.3826 19.5167 84.2452 20.0715 84.104 20.393L89.5971 22.8067ZM90.3826 18.6195C90.3826 16.4503 89.9057 14.2789 88.456 12.6137L83.9307 16.5534C84.0666 16.7095 84.3826 17.2288 84.3826 18.6195H90.3826ZM88.4818 12.6437C87.0779 10.9875 85.1592 10.2176 83.0638 10.2176V16.2176C83.5972 16.2176 83.7649 16.3583 83.9049 16.5234L88.4818 12.6437ZM83.0638 10.2176C81.7013 10.2176 80.3827 10.5545 79.1984 11.2888L82.3601 16.3882C82.511 16.2946 82.7155 16.2176 83.0638 16.2176V10.2176ZM79.2207 11.2751C77.9655 12.0382 77.0907 13.1573 76.5305 14.4322L82.0236 16.8459C82.1728 16.5065 82.2994 16.4252 82.3378 16.4018L79.2207 11.2751ZM76.5305 14.4322C75.9624 15.7252 75.745 17.1573 75.745 18.6195H81.745C81.745 17.7222 81.8824 17.1674 82.0236 16.8459L76.5305 14.4322ZM75.745 18.6195C75.745 20.7847 76.2291 22.9309 77.6498 24.5999L82.2187 20.7108C82.0538 20.517 81.745 19.9727 81.745 18.6195H75.745ZM77.6498 24.5999C79.0491 26.2437 80.9487 27.0524 83.0638 27.0524V21.0524C82.5918 21.0524 82.4051 20.9297 82.2187 20.7108L77.6498 24.5999ZM95.0284 23.3187C95.0348 23.3187 95.1292 23.3202 95.2723 23.3746C95.4231 23.4319 95.5627 23.5233 95.6703 23.6301L91.4447 27.8897C92.4641 28.901 93.7553 29.3187 95.0284 29.3187V23.3187ZM95.6703 23.6301C95.7671 23.7261 95.8621 23.8613 95.9258 24.0226C95.9872 24.1785 95.9942 24.2943 95.9942 24.3318H89.9942C89.9942 25.627 90.4443 26.8972 91.4447 27.8897L95.6703 23.6301ZM95.9942 24.3318C95.9942 24.3679 95.9876 24.4955 95.9174 24.6698C95.8439 24.8519 95.7312 25.0092 95.6086 25.124L91.5064 20.7455C90.4461 21.7388 89.9942 23.0381 89.9942 24.3318H95.9942ZM95.6703 25.0646C95.5627 25.1714 95.4231 25.2628 95.2723 25.3201C95.1292 25.3745 95.0348 25.3759 95.0284 25.3759V19.3759C93.7553 19.3759 92.4641 19.7937 91.4447 20.8049L95.6703 25.0646ZM95.0284 25.3759C95.0235 25.3759 94.9177 25.3749 94.7564 25.3123C94.5851 25.2458 94.4225 25.137 94.2952 25.0033L98.6407 20.8662C97.6199 19.7939 96.2975 19.3759 95.0284 19.3759V25.3759ZM94.3552 25.0646C94.2301 24.9405 94.1272 24.783 94.0634 24.6156C94.0029 24.4567 94 24.3484 94 24.3318H100C100 23.091 99.5946 21.8107 98.5808 20.8049L94.3552 25.0646ZM94 24.3318C94 24.3137 94.0033 24.2168 94.0557 24.0761C94.1105 23.9292 94.1965 23.795 94.2952 23.6913L98.6407 27.8285C99.5951 26.8261 100 25.5759 100 24.3318H94ZM94.2952 23.6913C94.4225 23.5576 94.5851 23.4488 94.7565 23.3823C94.9177 23.3197 95.0235 23.3187 95.0284 23.3187V29.3187C96.2975 29.3187 97.6199 28.9007 98.6407 27.8285L94.2952 23.6913ZM28.2953 15.5227C28.2953 22.4161 22.6555 28.0454 15.6477 28.0454V34.0454C25.9238 34.0454 34.2953 25.7751 34.2953 15.5227H28.2953ZM15.6477 28.0454C8.63982 28.0454 3 22.4161 3 15.5227H-3C-3 25.7751 5.37158 34.0454 15.6477 34.0454V28.0454ZM3 15.5227C3 8.62924 8.63983 3 15.6477 3V-3C5.37157 -3 -3 5.27026 -3 15.5227H3ZM15.6477 3C22.6555 3 28.2953 8.62924 28.2953 15.5227H34.2953C34.2953 5.27026 25.9238 -3 15.6477 -3V3Z" fill="white" mask="url(#path-1-inside-1_39_127)"/>
</svg>
